<svg width="21" height="19" viewBox="0 0 21 19" fill="none" xmlns="http://www.w3.org/2000/svg">
<g clip-path="url(#clip0_7_47)">
<path d="M10.857 3.3131C8.12763 5.10415 4.95317 6.3238 1.98717 7.66734C0.643925 8.2758 2.6932 7.8038 3.04023 7.74762C6.52895 7.1829 9.9424 6.09165 13.3055 5.03313C13.73 4.89954 14.9698 4.70461 14.6401 5.00345C13.8763 5.69573 7.37674 12.069 7.83956 12.4018C7.9217 12.4608 10.1146 10.547 10.338 10.3914C11.7036 9.44033 13.0962 8.32373 14.6416 7.68887C17.0024 6.71904 12.0637 12.0949 10.8117 14.3189C10.6116 14.6743 11.5113 13.6683 11.609 13.5963C13.3611 12.3047 15.2652 11.0571 17.2532 10.1597C20.1421 8.85547 15.678 15.0905 15.4196 16.2783C15.185 17.3565 18.7349 13.5104 18.1936 14.4719" stroke="#17B3D6" stroke-width="2" stroke-linecap="round"/>
</g>
<defs>
<clipPath id="clip0_7_47">
<rect width="21" height="19" fill="white"/>
</clipPath>
</defs>
</svg>
